<svg width="80" height="18" viewBox="0 0 80 18" fill="none" xmlns="http://www.w3.org/2000/svg">
<rect x="53" y="2" width="27" height="13" fill="#FDC800"/>
<path d="M6.336 7.24C6.184 6.96 5.964 6.748 5.676 6.604C5.396 6.452 5.064 6.376 4.68 6.376C4.016 6.376 3.484 6.596 3.084 7.036C2.684 7.468 2.484 8.048 2.484 8.776C2.484 9.552 2.692 10.16 3.108 10.6C3.532 11.032 4.112 11.248 4.848 11.248C5.352 11.248 5.776 11.12 6.12 10.864C6.472 10.608 6.728 10.24 6.888 9.76H4.284V8.248H8.748V10.156C8.596 10.668 8.336 11.144 7.968 11.584C7.608 12.024 7.148 12.38 6.588 12.652C6.028 12.924 5.396 13.06 4.692 13.06C3.86 13.06 3.116 12.88 2.46 12.52C1.812 12.152 1.304 11.644 0.936 10.996C0.576 10.348 0.396 9.608 0.396 8.776C0.396 7.944 0.576 7.204 0.936 6.556C1.304 5.9 1.812 5.392 2.46 5.032C3.108 4.664 3.848 4.48 4.68 4.48C5.688 4.48 6.536 4.724 7.224 5.212C7.92 5.7 8.38 6.376 8.604 7.24H6.336ZM11.9366 6.22V7.924H14.6846V9.508H11.9366V11.356H15.0446V13H9.88463V4.576H15.0446V6.22H11.9366ZM19.4248 13.084C18.8088 13.084 18.2568 12.984 17.7688 12.784C17.2808 12.584 16.8888 12.288 16.5928 11.896C16.3048 11.504 16.1528 11.032 16.1368 10.48H18.3208C18.3528 10.792 18.4608 11.032 18.6448 11.2C18.8288 11.36 19.0688 11.44 19.3648 11.44C19.6688 11.44 19.9088 11.372 20.0848 11.236C20.2608 11.092 20.3488 10.896 20.3488 10.648C20.3488 10.44 20.2768 10.268 20.1328 10.132C19.9968 9.996 19.8248 9.884 19.6168 9.796C19.4168 9.708 19.1288 9.608 18.7528 9.496C18.2088 9.328 17.7648 9.16 17.4208 8.992C17.0768 8.824 16.7808 8.576 16.5328 8.248C16.2848 7.92 16.1608 7.492 16.1608 6.964C16.1608 6.18 16.4448 5.568 17.0128 5.128C17.5808 4.68 18.3208 4.456 19.2328 4.456C20.1608 4.456 20.9088 4.68 21.4768 5.128C22.0448 5.568 22.3488 6.184 22.3888 6.976H20.1688C20.1528 6.704 20.0528 6.492 19.8688 6.34C19.6848 6.18 19.4488 6.1 19.1608 6.1C18.9128 6.1 18.7128 6.168 18.5608 6.304C18.4088 6.432 18.3328 6.62 18.3328 6.868C18.3328 7.14 18.4608 7.352 18.7168 7.504C18.9728 7.656 19.3728 7.82 19.9168 7.996C20.4608 8.18 20.9008 8.356 21.2368 8.524C21.5808 8.692 21.8768 8.936 22.1248 9.256C22.3728 9.576 22.4968 9.988 22.4968 10.492C22.4968 10.972 22.3728 11.408 22.1248 11.8C21.8848 12.192 21.5328 12.504 21.0688 12.736C20.6048 12.968 20.0568 13.084 19.4248 13.084ZM29.8196 4.576V6.22H27.5876V13H25.5356V6.22H23.3036V4.576H29.8196ZM32.9015 4.576V13H30.8495V4.576H32.9015ZM38.3725 13.084C37.5805 13.084 36.8525 12.9 36.1885 12.532C35.5325 12.164 35.0085 11.652 34.6165 10.996C34.2325 10.332 34.0405 9.588 34.0405 8.764C34.0405 7.94 34.2325 7.2 34.6165 6.544C35.0085 5.888 35.5325 5.376 36.1885 5.008C36.8525 4.64 37.5805 4.456 38.3725 4.456C39.1645 4.456 39.8885 4.64 40.5445 5.008C41.2085 5.376 41.7285 5.888 42.1045 6.544C42.4885 7.2 42.6805 7.94 42.6805 8.764C42.6805 9.588 42.4885 10.332 42.1045 10.996C41.7205 11.652 41.2005 12.164 40.5445 12.532C39.8885 12.9 39.1645 13.084 38.3725 13.084ZM38.3725 11.212C39.0445 11.212 39.5805 10.988 39.9805 10.54C40.3885 10.092 40.5925 9.5 40.5925 8.764C40.5925 8.02 40.3885 7.428 39.9805 6.988C39.5805 6.54 39.0445 6.316 38.3725 6.316C37.6925 6.316 37.1485 6.536 36.7405 6.976C36.3405 7.416 36.1405 8.012 36.1405 8.764C36.1405 9.508 36.3405 10.104 36.7405 10.552C37.1485 10.992 37.6925 11.212 38.3725 11.212ZM51.3581 13H49.3061L45.8741 7.804V13H43.8221V4.576H45.8741L49.3061 9.796V4.576H51.3581V13ZM57.4405 11.416H60.1285V13H55.3885V4.576H57.4405V11.416ZM65.0913 13.084C64.2993 13.084 63.5713 12.9 62.9073 12.532C62.2513 12.164 61.7273 11.652 61.3353 10.996C60.9513 10.332 60.7593 9.588 60.7593 8.764C60.7593 7.94 60.9513 7.2 61.3353 6.544C61.7273 5.888 62.2513 5.376 62.9073 5.008C63.5713 4.64 64.2993 4.456 65.0913 4.456C65.8833 4.456 66.6073 4.64 67.2633 5.008C67.9273 5.376 68.4473 5.888 68.8233 6.544C69.2073 7.2 69.3993 7.94 69.3993 8.764C69.3993 9.588 69.2073 10.332 68.8233 10.996C68.4393 11.652 67.9193 12.164 67.2633 12.532C66.6073 12.9 65.8833 13.084 65.0913 13.084ZM65.0913 11.212C65.7633 11.212 66.2993 10.988 66.6993 10.54C67.1073 10.092 67.3113 9.5 67.3113 8.764C67.3113 8.02 67.1073 7.428 66.6993 6.988C66.2993 6.54 65.7633 6.316 65.0913 6.316C64.4113 6.316 63.8673 6.536 63.4593 6.976C63.0593 7.416 62.8593 8.012 62.8593 8.764C62.8593 9.508 63.0593 10.104 63.4593 10.552C63.8673 10.992 64.4113 11.212 65.0913 11.212ZM70.1929 8.776C70.1929 7.944 70.3729 7.204 70.7329 6.556C71.0929 5.9 71.5929 5.392 72.2329 5.032C72.8809 4.664 73.6129 4.48 74.4289 4.48C75.4289 4.48 76.2849 4.744 76.9969 5.272C77.7089 5.8 78.1849 6.52 78.4249 7.432H76.1689C76.0009 7.08 75.7609 6.812 75.4489 6.628C75.1449 6.444 74.7969 6.352 74.4049 6.352C73.7729 6.352 73.2609 6.572 72.8689 7.012C72.4769 7.452 72.2809 8.04 72.2809 8.776C72.2809 9.512 72.4769 10.1 72.8689 10.54C73.2609 10.98 73.7729 11.2 74.4049 11.2C74.7969 11.2 75.1449 11.108 75.4489 10.924C75.7609 10.74 76.0009 10.472 76.1689 10.12H78.4249C78.1849 11.032 77.7089 11.752 76.9969 12.28C76.2849 12.8 75.4289 13.06 74.4289 13.06C73.6129 13.06 72.8809 12.88 72.2329 12.52C71.5929 12.152 71.0929 11.644 70.7329 10.996C70.3729 10.348 70.1929 9.608 70.1929 8.776Z" fill="black"/>
</svg>
